# Blender v3.1.2 OBJ File: 'Arrow.blend'
# www.blender.org
mtllib HorizontalArrow.mtl
o Cube.002_Cube.003
v 1.980608 -0.179524 0.306735
v 1.980608 -0.179524 0.000117
v 1.980608 0.179667 0.306735
v 1.980608 0.179666 0.000117
v -0.019392 -0.179524 1.723318
v -0.019392 -0.179524 0.000117
v -0.019392 0.179667 1.723318
v -0.019392 0.179666 0.000117
v 0.311979 -0.179524 1.723385
v 0.311979 0.179667 1.723385
v 1.980608 -0.179524 -0.306502
v 1.980608 0.179666 -0.306502
v -0.019392 -0.179524 -1.723084
v -0.019392 0.179666 -1.723084
v 0.311979 -0.179524 -1.723151
v 0.311979 0.179666 -1.723151
v 0.176843 -0.138308 0.607805
v 0.176843 -0.138308 -0.607572
v 0.176843 0.138023 0.607805
v 0.176843 0.138023 -0.607572
v -3.430645 -0.138308 1.136416
v -3.430645 -0.138308 -1.137583
v -3.430645 0.138023 1.136416
v -3.430645 0.138023 -1.137583
v 0.305591 -0.179524 0.000117
v 0.339275 0.179666 0.000117
vt 0.375000 0.000000
vt 0.625000 0.000000
vt 0.625000 0.250000
vt 0.375000 0.250000
vt 0.375000 0.458579
vt 0.625000 0.455167
vt 0.625000 0.500000
vt 0.375000 0.500000
vt 0.625000 0.750000
vt 0.375000 0.750000
vt 0.375000 0.791421
vt 0.625000 0.790623
vt 0.625000 1.000000
vt 0.375000 1.000000
vt 0.333579 0.500000
vt 0.333579 0.750000
vt 0.669833 0.500000
vt 0.875000 0.500000
vt 0.875000 0.750000
vt 0.665623 0.750000
vt 0.375000 0.000000
vt 0.375000 0.250000
vt 0.375000 0.458579
vt 0.375000 0.500000
vt 0.375000 0.750000
vt 0.375000 0.791421
vt 0.375000 1.000000
vt 0.333579 0.500000
vt 0.333579 0.750000
vt 0.375000 0.000000
vt 0.625000 0.000000
vt 0.625000 0.250000
vt 0.375000 0.250000
vt 0.625000 0.500000
vt 0.375000 0.500000
vt 0.625000 0.750000
vt 0.375000 0.750000
vt 0.625000 1.000000
vt 0.375000 1.000000
vt 0.125000 0.500000
vt 0.125000 0.750000
vt 0.875000 0.500000
vt 0.875000 0.750000
vt 0.125000 0.500000
vt 0.125000 0.750000
vt 0.125000 0.500000
vt 0.125000 0.750000
vn 1.0000 0.0000 0.0000
vn 0.0000 1.0000 -0.0000
vn -1.0000 0.0000 0.0000
vn 0.0000 -1.0000 0.0000
vn -0.0002 0.0000 1.0000
vn 0.0000 -0.0000 -1.0000
vn -0.0002 0.0000 -1.0000
vn 0.1450 0.0000 0.9894
vn 0.1454 0.0000 -0.9894
vn 0.6472 0.0000 -0.7623
vn 0.6472 0.0000 0.7623
usemtl None
s off
f 1/1/1 2/2/1 4/3/1 3/4/1
f 10/5/2 26/6/2 8/7/2 7/8/2
f 7/8/3 8/7/3 6/9/3 5/10/3
f 9/11/4 25/12/4 2/13/4 1/14/4
f 10/15/5 7/8/5 5/10/5 9/16/5
f 8/7/6 26/17/6 4/18/6 2/19/6 25/20/6 6/9/6
f 11/21/1 12/22/1 4/3/1 2/2/1
f 16/23/2 14/24/2 8/7/2 26/6/2
f 14/24/3 13/25/3 6/9/3 8/7/3
f 15/26/4 11/27/4 2/13/4 25/12/4
f 16/28/7 15/29/7 13/25/7 14/24/7
f 17/30/1 18/31/1 20/32/1 19/33/1
f 19/33/2 20/32/2 24/34/2 23/35/2
f 23/35/3 24/34/3 22/36/3 21/37/3
f 21/37/4 22/36/4 18/38/4 17/39/4
f 19/40/8 23/35/8 21/37/8 17/41/8
f 24/34/9 20/42/9 18/43/9 22/36/9
f 5/10/4 6/9/4 25/12/4 9/11/4
f 13/25/4 15/26/4 25/12/4 6/9/4
f 12/44/10 11/45/10 15/29/10 16/28/10
f 3/46/11 10/15/11 9/16/11 1/47/11
f 3/4/2 4/3/2 26/6/2 10/5/2
f 12/22/2 16/23/2 26/6/2 4/3/2
