# Blender v3.1.2 OBJ File: 'Arrow.blend'
# www.blender.org
mtllib RoundArrow.mtl
o Cube.001
v 3.538580 2.018407 -0.246796
v 3.538580 2.325025 -0.246796
v 3.538580 2.018407 0.247384
v 3.538580 2.325025 0.247384
v 1.538580 0.601825 -0.246796
v 1.538580 2.325025 -0.246796
v 1.538580 0.601825 0.247384
v 1.538580 2.325025 0.247384
v 1.869951 0.601757 -0.246796
v 1.869951 0.601757 0.247384
v 3.538580 2.631644 -0.246796
v 3.538580 2.631644 0.247384
v 1.538580 4.048226 -0.246796
v 1.538580 4.048226 0.247384
v 1.869951 4.048294 -0.246796
v 1.869951 4.048294 0.247384
v -1.779369 -0.273533 -0.156022
v -1.715333 -0.848403 -0.156022
v -1.525686 -1.401182 -0.156022
v -1.217716 -1.910625 -0.156022
v -0.803259 -2.357156 -0.156022
v -0.298241 -2.723615 -0.156022
v 0.277930 -2.995918 -0.156022
v 0.903111 -3.163601 -0.156022
v 1.553279 -3.220222 -0.156022
v 1.553279 2.673155 -0.156022
v 0.903111 2.616536 -0.156022
v 0.277929 2.448852 -0.156022
v -0.298240 2.176549 -0.156022
v -0.803259 1.810091 -0.156022
v -1.217716 1.363560 -0.156022
v -1.525686 0.854116 -0.156022
v -1.715333 0.301337 -0.156022
v -1.779369 -0.273533 -0.156022
v -1.715333 -0.848403 -0.156022
v -1.525686 -1.401182 -0.156022
v -1.217716 -1.910625 -0.156022
v -0.803259 -2.357156 -0.156022
v -0.298241 -2.723615 -0.156022
v 0.277930 -2.995918 -0.156022
v 0.903111 -3.163601 -0.156022
v 1.553279 -3.220222 -0.156022
v 1.553279 2.673155 -0.156022
v 0.903111 2.616536 -0.156022
v 0.277929 2.448852 -0.156022
v -0.298240 2.176549 -0.156022
v -0.803259 1.810091 -0.156022
v -1.217716 1.363560 -0.156022
v -1.525686 0.854116 -0.156022
v -1.715333 0.301337 -0.156022
v -0.720258 -0.273533 -0.156022
v -0.676572 -0.665710 -0.156022
v -0.547195 -1.042817 -0.156022
v -0.337097 -1.390360 -0.156022
v -0.054354 -1.694983 -0.156022
v 0.290169 -1.944982 -0.156022
v 0.683234 -2.130747 -0.156022
v 1.109734 -2.245142 -0.156022
v 1.553279 -2.283768 -0.156022
v 1.553279 1.736701 -0.156022
v 1.109734 1.698075 -0.156022
v 0.683234 1.583681 -0.156022
v 0.290170 1.397916 -0.156022
v -0.054354 1.147918 -0.156022
v -0.337097 0.843294 -0.156022
v -0.547195 0.495750 -0.156022
v -0.676572 0.118644 -0.156022
v -1.715333 -0.848403 -0.156022
v -1.779369 -0.273533 -0.156022
v -1.525686 -1.401182 -0.156022
v -1.217716 -1.910625 -0.156022
v -0.803259 -2.357156 -0.156022
v -0.298241 -2.723615 -0.156022
v 0.277930 -2.995918 -0.156022
v 0.903111 -3.163601 -0.156022
v 1.553279 -3.220222 -0.156022
v 1.553279 2.673155 -0.156022
v 0.903111 2.616536 -0.156022
v 0.277929 2.448852 -0.156022
v -0.298240 2.176549 -0.156022
v -0.803259 1.810091 -0.156022
v -1.217716 1.363560 -0.156022
v -1.525686 0.854116 -0.156022
v -1.715333 0.301337 -0.156022
v -1.779369 -0.273533 0.155953
v -1.715333 -0.848403 0.155953
v -1.525686 -1.401182 0.155953
v -1.217716 -1.910625 0.155953
v -0.803259 -2.357156 0.155953
v -0.298241 -2.723615 0.155953
v 0.277930 -2.995918 0.155953
v 0.903111 -3.163601 0.155953
v 1.553279 -3.220222 0.155953
v 1.553279 2.673155 0.155953
v 0.903111 2.616536 0.155953
v 0.277929 2.448852 0.155953
v -0.298240 2.176549 0.155953
v -0.803259 1.810091 0.155953
v -1.217716 1.363560 0.155953
v -1.525686 0.854116 0.155953
v -1.715333 0.301337 0.155953
v -1.779369 -0.273533 0.155953
v -1.715333 -0.848403 0.155953
v -1.525686 -1.401182 0.155953
v -1.217716 -1.910625 0.155953
v -0.803259 -2.357156 0.155953
v -0.298241 -2.723615 0.155953
v 0.277930 -2.995918 0.155953
v 0.903111 -3.163601 0.155953
v 1.553279 -3.220222 0.155953
v 1.553279 2.673155 0.155953
v 0.903111 2.616536 0.155953
v 0.277929 2.448852 0.155953
v -0.298240 2.176549 0.155953
v -0.803259 1.810091 0.155953
v -1.217716 1.363560 0.155953
v -1.525686 0.854116 0.155953
v -1.715333 0.301337 0.155953
v -0.720258 -0.273533 0.155953
v -0.676572 -0.665710 0.155953
v -0.547195 -1.042817 0.155953
v -0.337097 -1.390360 0.155953
v -0.054354 -1.694983 0.155953
v 0.290169 -1.944982 0.155953
v 0.683234 -2.130747 0.155953
v 1.109734 -2.245142 0.155953
v 1.553279 -2.283768 0.155953
v 1.553279 1.736701 0.155953
v 1.109734 1.698075 0.155953
v 0.683234 1.583681 0.155953
v 0.290170 1.397916 0.155953
v -0.054354 1.147918 0.155953
v -0.337097 0.843294 0.155953
v -0.547195 0.495750 0.155953
v -0.676572 0.118644 0.155953
v -1.715333 -0.848403 0.155953
v -1.779369 -0.273533 0.155953
v -1.525686 -1.401182 0.155953
v -1.217716 -1.910625 0.155953
v -0.803259 -2.357156 0.155953
v -0.298241 -2.723615 0.155953
v 0.277930 -2.995918 0.155953
v 0.903111 -3.163601 0.155953
v 1.553279 -3.220222 0.155953
v 1.553279 2.673155 0.155953
v 0.903111 2.616536 0.155953
v 0.277929 2.448852 0.155953
v -0.298240 2.176549 0.155953
v -0.803259 1.810091 0.155953
v -1.217716 1.363560 0.155953
v -1.525686 0.854116 0.155953
v -1.715333 0.301337 0.155953
v 1.871737 2.325025 -0.246796
v 1.871737 2.325025 0.247384
v 1.869951 2.325025 0.247384
vt 0.375000 0.000000
vt 0.625000 0.000000
vt 0.625000 0.250000
vt 0.375000 0.250000
vt 0.375000 0.458579
vt 0.625000 0.458579
vt 0.625000 0.500000
vt 0.375000 0.500000
vt 0.625000 0.750000
vt 0.375000 0.750000
vt 0.375000 0.791421
vt 0.625000 0.791645
vt 0.625000 1.000000
vt 0.375000 1.000000
vt 0.333579 0.500000
vt 0.333579 0.750000
vt 0.666645 0.750000
vt 0.875000 0.750000
vt 0.875000 0.500000
vt 0.666645 0.500000
vt 0.666421 0.500000
vt 0.375000 0.000000
vt 0.375000 0.250000
vt 0.375000 0.458579
vt 0.625000 0.458355
vt 0.375000 0.500000
vt 0.375000 0.750000
vt 0.375000 0.791421
vt 0.375000 1.000000
vt 0.333579 0.500000
vt 0.333579 0.750000
vt 0.031250 1.000000
vt 0.062500 1.000000
vt 0.062500 1.000000
vt 0.031250 1.000000
vt 0.093750 1.000000
vt 0.125000 1.000000
vt 0.125000 1.000000
vt 0.093750 1.000000
vt 0.781250 1.000000
vt 0.812500 1.000000
vt 0.812500 1.000000
vt 0.781250 1.000000
vt 0.218750 1.000000
vt 0.250000 1.000000
vt 0.250000 1.000000
vt 0.218750 1.000000
vt 0.906250 1.000000
vt 0.937500 1.000000
vt 0.937500 1.000000
vt 0.906250 1.000000
vt 0.062500 1.000000
vt 0.750000 1.000000
vt 0.750000 1.000000
vt 0.187500 1.000000
vt 0.187500 1.000000
vt 0.875000 1.000000
vt 0.875000 1.000000
vt 0.031250 1.000000
vt 0.156250 1.000000
vt 0.156250 1.000000
vt 0.843750 1.000000
vt 0.843750 1.000000
vt 0.968750 1.000000
vt 1.000000 1.000000
vt 1.000000 1.000000
vt 0.968750 1.000000
vt 0.000000 1.000000
vt 0.000000 1.000000
vt 0.875000 1.000000
vt 0.843750 1.000000
vt 0.000000 1.000000
vt 0.812500 1.000000
vt 0.781250 1.000000
vt 0.750000 1.000000
vt 0.250000 1.000000
vt 0.218750 1.000000
vt 0.187500 1.000000
vt 0.156250 1.000000
vt 1.000000 1.000000
vt 0.968750 1.000000
vt 0.125000 1.000000
vt 0.937500 1.000000
vt 0.093750 1.000000
vt 0.906250 1.000000
vt 0.250000 0.431811
vt 0.285470 0.428318
vt 0.296822 0.485388
vt 0.250000 0.490000
vt 0.319576 0.417972
vt 0.341844 0.471731
vt 0.351009 0.401170
vt 0.383337 0.449553
vt 0.378560 0.378560
vt 0.419706 0.419706
vt 0.401170 0.351009
vt 0.449553 0.383337
vt 0.417972 0.319576
vt 0.471731 0.341844
vt 0.428318 0.285470
vt 0.485388 0.296822
vt 0.431811 0.250000
vt 0.490000 0.250000
vt 0.068189 0.250000
vt 0.071682 0.285470
vt 0.014612 0.296822
vt 0.010000 0.250000
vt 0.082029 0.319576
vt 0.028269 0.341844
vt 0.098830 0.351009
vt 0.050447 0.383337
vt 0.121440 0.378560
vt 0.080294 0.419706
vt 0.148991 0.401170
vt 0.116663 0.449553
vt 0.180424 0.417971
vt 0.158156 0.471731
vt 0.214530 0.428318
vt 0.203178 0.485388
vt 0.031250 1.000000
vt 0.031250 1.000000
vt 0.062500 1.000000
vt 0.062500 1.000000
vt 0.093750 1.000000
vt 0.093750 1.000000
vt 0.125000 1.000000
vt 0.125000 1.000000
vt 0.781250 1.000000
vt 0.781250 1.000000
vt 0.812500 1.000000
vt 0.812500 1.000000
vt 0.218750 1.000000
vt 0.218750 1.000000
vt 0.250000 1.000000
vt 0.250000 1.000000
vt 0.906250 1.000000
vt 0.906250 1.000000
vt 0.937500 1.000000
vt 0.937500 1.000000
vt 0.062500 1.000000
vt 0.750000 1.000000
vt 0.750000 1.000000
vt 0.187500 1.000000
vt 0.187500 1.000000
vt 0.875000 1.000000
vt 0.875000 1.000000
vt 0.031250 1.000000
vt 0.156250 1.000000
vt 0.156250 1.000000
vt 0.843750 1.000000
vt 0.843750 1.000000
vt 0.968750 1.000000
vt 0.968750 1.000000
vt 1.000000 1.000000
vt 1.000000 1.000000
vt 0.000000 1.000000
vt 0.000000 1.000000
vt 0.843750 1.000000
vt 0.875000 1.000000
vt 0.000000 1.000000
vt 0.812500 1.000000
vt 0.781250 1.000000
vt 0.750000 1.000000
vt 0.218750 1.000000
vt 0.250000 1.000000
vt 0.187500 1.000000
vt 0.156250 1.000000
vt 0.968750 1.000000
vt 1.000000 1.000000
vt 0.125000 1.000000
vt 0.937500 1.000000
vt 0.093750 1.000000
vt 0.906250 1.000000
vt 0.250000 0.431811
vt 0.250000 0.490000
vt 0.296822 0.485388
vt 0.285470 0.428318
vt 0.341844 0.471731
vt 0.319576 0.417972
vt 0.383337 0.449553
vt 0.351009 0.401170
vt 0.419706 0.419706
vt 0.378560 0.378560
vt 0.449553 0.383337
vt 0.401170 0.351009
vt 0.471731 0.341844
vt 0.417972 0.319576
vt 0.485388 0.296822
vt 0.428318 0.285470
vt 0.490000 0.250000
vt 0.431811 0.250000
vt 0.068189 0.250000
vt 0.010000 0.250000
vt 0.014612 0.296822
vt 0.071682 0.285470
vt 0.028269 0.341844
vt 0.082029 0.319576
vt 0.050447 0.383337
vt 0.098830 0.351009
vt 0.080294 0.419706
vt 0.121440 0.378560
vt 0.116663 0.449553
vt 0.148991 0.401170
vt 0.158156 0.471731
vt 0.180424 0.417971
vt 0.203178 0.485388
vt 0.214530 0.428318
vt 0.125000 0.500000
vt 0.125000 0.750000
vt 0.125000 0.500000
vt 0.125000 0.750000
vn 1.0000 0.0000 0.0000
vn 0.0000 0.0000 1.0000
vn -1.0000 0.0000 0.0000
vn 0.0000 0.0000 -1.0000
vn -0.0002 -1.0000 0.0000
vn 0.0000 -1.0000 0.0000
vn -0.0002 1.0000 0.0000
vn -0.9939 -0.1107 0.0000
vn 0.7329 -0.6803 0.0000
vn -0.9459 0.3245 0.0000
vn -0.9459 -0.3245 0.0000
vn 0.8558 -0.5173 0.0000
vn -0.9939 0.1107 0.0000
vn 0.9939 0.1107 0.0000
vn -0.8558 -0.5173 0.0000
vn 0.9459 -0.3245 0.0000
vn 0.9459 0.3245 0.0000
vn -0.7329 -0.6803 0.0000
vn 0.9939 -0.1107 0.0000
vn 0.8558 0.5173 0.0000
vn -0.5873 -0.8094 0.0000
vn 0.7329 0.6803 0.0000
vn -0.4273 -0.9041 -0.0000
vn 0.5873 0.8094 0.0000
vn -0.2591 -0.9659 0.0000
vn 0.4273 0.9041 0.0000
vn -0.0868 -0.9962 0.0000
vn 0.2591 0.9659 0.0000
vn -0.0868 0.9962 0.0000
vn 0.0868 0.9962 0.0000
vn -0.2591 0.9659 0.0000
vn 0.0868 -0.9962 0.0000
vn -0.4273 0.9041 0.0000
vn 0.2591 -0.9659 0.0000
vn -0.5873 0.8094 0.0000
vn 0.4273 -0.9041 0.0000
vn -0.7329 0.6803 0.0000
vn 0.5873 -0.8094 0.0000
vn -0.8558 0.5173 0.0000
vn 0.6472 0.7623 0.0000
vn 0.6472 -0.7623 0.0000
usemtl None
s off
f 1/1/1 2/2/1 4/3/1 3/4/1
f 10/5/2 155/6/2 8/7/2 7/8/2
f 7/8/3 8/7/3 6/9/3 5/10/3
f 9/11/4 153/12/4 2/13/4 1/14/4
f 10/15/5 7/8/5 5/10/5 9/16/5
f 8/7/6 6/9/6 153/17/6 2/18/6 4/19/6 154/20/6 155/21/6
f 11/22/1 12/23/1 4/3/1 2/2/1
f 16/24/2 155/6/2 154/25/2
f 14/26/3 13/27/3 6/9/3 8/7/3
f 15/28/4 11/29/4 2/13/4 153/12/4
f 16/30/7 15/31/7 13/27/7 14/26/7
f 50/32/2 49/33/2 83/34/2 84/35/2
f 31/36/2 30/37/2 47/38/2 48/39/2
f 24/40/2 23/41/2 40/42/2 41/43/2
f 27/44/2 26/45/2 43/46/2 44/47/2
f 20/48/2 19/49/2 36/50/2 37/51/2
f 32/52/2 31/36/2 48/39/2 49/33/2
f 25/53/2 24/40/2 41/43/2 42/54/2
f 28/55/2 27/44/2 44/47/2 45/56/2
f 21/57/2 20/48/2 37/51/2 38/58/2
f 33/59/2 32/52/2 49/33/2 50/32/2
f 29/60/2 28/55/2 45/56/2 46/61/2
f 22/62/2 21/57/2 38/58/2 39/63/2
f 18/64/2 17/65/2 34/66/2 35/67/2
f 17/68/2 33/59/2 50/32/2 34/69/2
f 30/37/2 29/60/2 46/61/2 47/38/2
f 23/41/2 22/62/2 39/63/2 40/42/2
f 19/49/2 18/64/2 35/67/2 36/50/2
f 39/63/2 38/58/2 72/70/2 73/71/2
f 34/69/2 50/32/2 84/35/2 69/72/2
f 40/42/2 39/63/2 73/71/2 74/73/2
f 41/43/2 40/42/2 74/73/2 75/74/2
f 42/54/2 41/43/2 75/74/2 76/75/2
f 44/47/2 43/46/2 77/76/2 78/77/2
f 45/56/2 44/47/2 78/77/2 79/78/2
f 46/61/2 45/56/2 79/78/2 80/79/2
f 35/67/2 34/66/2 69/80/2 68/81/2
f 47/38/2 46/61/2 80/79/2 81/82/2
f 36/50/2 35/67/2 68/81/2 70/83/2
f 48/39/2 47/38/2 81/82/2 82/84/2
f 37/51/2 36/50/2 70/83/2 71/85/2
f 49/33/2 48/39/2 82/84/2 83/34/2
f 38/58/2 37/51/2 71/85/2 72/70/2
f 51/86/4 52/87/4 68/88/4 69/89/4
f 52/87/4 53/90/4 70/91/4 68/88/4
f 53/90/4 54/92/4 71/93/4 70/91/4
f 54/92/4 55/94/4 72/95/4 71/93/4
f 55/94/4 56/96/4 73/97/4 72/95/4
f 56/96/4 57/98/4 74/99/4 73/97/4
f 57/98/4 58/100/4 75/101/4 74/99/4
f 58/100/4 59/102/4 76/103/4 75/101/4
f 60/104/4 61/105/4 78/106/4 77/107/4
f 61/105/4 62/108/4 79/109/4 78/106/4
f 62/108/4 63/110/4 80/111/4 79/109/4
f 63/110/4 64/112/4 81/113/4 80/111/4
f 64/112/4 65/114/4 82/115/4 81/113/4
f 65/114/4 66/116/4 83/117/4 82/115/4
f 66/116/4 67/118/4 84/119/4 83/117/4
f 67/118/4 51/86/4 69/89/4 84/119/4
f 118/120/2 152/121/2 151/122/2 117/123/2
f 99/124/2 116/125/2 115/126/2 98/127/2
f 92/128/2 109/129/2 108/130/2 91/131/2
f 95/132/2 112/133/2 111/134/2 94/135/2
f 88/136/2 105/137/2 104/138/2 87/139/2
f 100/140/2 117/123/2 116/125/2 99/124/2
f 93/141/2 110/142/2 109/129/2 92/128/2
f 96/143/2 113/144/2 112/133/2 95/132/2
f 89/145/2 106/146/2 105/137/2 88/136/2
f 101/147/2 118/120/2 117/123/2 100/140/2
f 97/148/2 114/149/2 113/144/2 96/143/2
f 90/150/2 107/151/2 106/146/2 89/145/2
f 86/152/2 103/153/2 102/154/2 85/155/2
f 85/156/2 102/157/2 118/120/2 101/147/2
f 98/127/2 115/126/2 114/149/2 97/148/2
f 91/131/2 108/130/2 107/151/2 90/150/2
f 87/139/2 104/138/2 103/153/2 86/152/2
f 107/151/2 141/158/2 140/159/2 106/146/2
f 102/157/2 137/160/2 152/121/2 118/120/2
f 108/130/2 142/161/2 141/158/2 107/151/2
f 109/129/2 143/162/2 142/161/2 108/130/2
f 110/142/2 144/163/2 143/162/2 109/129/2
f 112/133/2 146/164/2 145/165/2 111/134/2
f 113/144/2 147/166/2 146/164/2 112/133/2
f 114/149/2 148/167/2 147/166/2 113/144/2
f 103/153/2 136/168/2 137/169/2 102/154/2
f 115/126/2 149/170/2 148/167/2 114/149/2
f 104/138/2 138/171/2 136/168/2 103/153/2
f 116/125/2 150/172/2 149/170/2 115/126/2
f 105/137/2 139/173/2 138/171/2 104/138/2
f 117/123/2 151/122/2 150/172/2 116/125/2
f 106/146/2 140/159/2 139/173/2 105/137/2
f 119/174/2 137/175/2 136/176/2 120/177/2
f 120/177/2 136/176/2 138/178/2 121/179/2
f 121/179/2 138/178/2 139/180/2 122/181/2
f 122/181/2 139/180/2 140/182/2 123/183/2
f 123/183/2 140/182/2 141/184/2 124/185/2
f 124/185/2 141/184/2 142/186/2 125/187/2
f 125/187/2 142/186/2 143/188/2 126/189/2
f 126/189/2 143/188/2 144/190/2 127/191/2
f 128/192/2 145/193/2 146/194/2 129/195/2
f 129/195/2 146/194/2 147/196/2 130/197/2
f 130/197/2 147/196/2 148/198/2 131/199/2
f 131/199/2 148/198/2 149/200/2 132/201/2
f 132/201/2 149/200/2 150/202/2 133/203/2
f 133/203/2 150/202/2 151/204/2 134/205/2
f 134/205/2 151/204/2 152/206/2 135/207/2
f 135/207/2 152/206/2 137/175/2 119/174/2
f 18/64/8 86/152/8 85/155/8 17/65/8
f 64/112/9 132/201/9 133/203/9 65/114/9
f 33/59/10 101/147/10 100/140/10 32/52/10
f 42/54/2 110/142/2 93/141/2 25/53/2
f 19/49/11 87/139/11 86/152/11 18/64/11
f 65/114/12 133/203/12 134/205/12 66/116/12
f 17/68/13 85/156/13 101/147/13 33/59/13
f 51/86/14 119/174/14 120/177/14 52/87/14
f 20/48/15 88/136/15 87/139/15 19/49/15
f 66/116/16 134/205/16 135/207/16 67/118/16
f 52/87/17 120/177/17 121/179/17 53/90/17
f 21/57/18 89/145/18 88/136/18 20/48/18
f 67/118/19 135/207/19 119/174/19 51/86/19
f 53/90/20 121/179/20 122/181/20 54/92/20
f 22/62/21 90/150/21 89/145/21 21/57/21
f 54/92/22 122/181/22 123/183/22 55/94/22
f 76/75/2 144/163/2 110/142/2 42/54/2
f 23/41/23 91/131/23 90/150/23 22/62/23
f 55/94/24 123/183/24 124/185/24 56/96/24
f 43/46/2 111/134/2 145/165/2 77/76/2
f 24/40/25 92/128/25 91/131/25 23/41/25
f 56/96/26 124/185/26 125/187/26 57/98/26
f 25/53/27 93/141/27 92/128/27 24/40/27
f 57/98/28 125/187/28 126/189/28 58/100/28
f 27/44/29 95/132/29 94/135/29 26/45/29
f 58/100/30 126/189/30 127/191/30 59/102/30
f 28/55/31 96/143/31 95/132/31 27/44/31
f 26/45/2 94/135/2 111/134/2 43/46/2
f 60/104/32 128/192/32 129/195/32 61/105/32
f 29/60/33 97/148/33 96/143/33 28/55/33
f 61/105/34 129/195/34 130/197/34 62/108/34
f 30/37/35 98/127/35 97/148/35 29/60/35
f 62/108/36 130/197/36 131/199/36 63/110/36
f 31/36/37 99/124/37 98/127/37 30/37/37
f 59/102/1 127/191/1 144/190/1 76/103/1
f 63/110/38 131/199/38 132/201/38 64/112/38
f 32/52/39 100/140/39 99/124/39 31/36/39
f 77/107/1 145/193/1 128/192/1 60/104/1
f 12/208/40 11/209/40 15/31/40 16/30/40
f 3/210/41 10/15/41 9/16/41 1/211/41
f 12/23/2 16/24/2 154/25/2 4/3/2
f 14/26/2 8/7/2 155/6/2 16/24/2
f 3/4/2 4/3/2 154/25/2 155/6/2 10/5/2
f 5/10/4 6/9/4 153/12/4 9/11/4
f 13/27/4 15/28/4 153/12/4 6/9/4
