# Blender v2.83.1 OBJ File: ''
# www.blender.org
mtllib Circle.mtl
o Цилиндр
v 0.000000 0.804468 0.105275
v 0.000000 0.804468 -0.105275
v -0.156944 0.789010 0.105275
v -0.156944 0.789010 -0.105275
v -0.307857 0.743231 0.105275
v -0.307857 0.743231 -0.105275
v -0.446938 0.668891 0.105275
v -0.446938 0.668891 -0.105275
v -0.568845 0.568845 0.105275
v -0.568845 0.568845 -0.105275
v -0.668891 0.446938 0.105275
v -0.668891 0.446938 -0.105275
v -0.743231 0.307857 0.105275
v -0.743231 0.307857 -0.105275
v -0.789010 0.156944 0.105275
v -0.789010 0.156944 -0.105275
v -0.804468 0.000000 0.105275
v -0.804468 0.000000 -0.105275
v -0.789010 -0.156944 0.105275
v -0.789010 -0.156944 -0.105275
v -0.743231 -0.307856 0.105275
v -0.743231 -0.307856 -0.105275
v -0.668891 -0.446938 0.105275
v -0.668891 -0.446938 -0.105275
v -0.568845 -0.568845 0.105275
v -0.568845 -0.568845 -0.105275
v -0.446938 -0.668891 0.105275
v -0.446938 -0.668891 -0.105275
v -0.307856 -0.743231 0.105275
v -0.307856 -0.743231 -0.105275
v -0.156944 -0.789010 0.105275
v -0.156944 -0.789010 -0.105275
v 0.000000 -0.804468 0.105275
v 0.000000 -0.804468 -0.105275
v 0.156944 -0.789010 0.105275
v 0.156944 -0.789010 -0.105275
v 0.307857 -0.743231 0.105275
v 0.307857 -0.743231 -0.105275
v 0.446939 -0.668890 0.105275
v 0.446939 -0.668890 -0.105275
v 0.568845 -0.568844 0.105275
v 0.568845 -0.568844 -0.105275
v 0.668891 -0.446938 0.105275
v 0.668891 -0.446938 -0.105275
v 0.743232 -0.307856 0.105275
v 0.743232 -0.307856 -0.105275
v 0.789010 -0.156943 0.105275
v 0.789010 -0.156943 -0.105275
v 0.804468 0.000001 0.105275
v 0.804468 0.000001 -0.105275
v 0.789010 0.156945 0.105275
v 0.789010 0.156945 -0.105275
v 0.743231 0.307857 0.105275
v 0.743231 0.307857 -0.105275
v 0.668890 0.446939 0.105275
v 0.668890 0.446939 -0.105275
v 0.568844 0.568845 0.105275
v 0.568844 0.568845 -0.105275
v 0.446937 0.668891 0.105275
v 0.446937 0.668891 -0.105275
v 0.307855 0.743232 0.105275
v 0.307855 0.743232 -0.105275
v 0.156943 0.789010 0.105275
v 0.156943 0.789010 -0.105275
v 0.000000 1.000000 -0.000000
v -0.195090 0.980785 -0.000000
v -0.382683 0.923880 -0.000000
v -0.555570 0.831470 -0.000000
v -0.707107 0.707107 -0.000000
v -0.831470 0.555570 -0.000000
v -0.923880 0.382683 -0.000000
v -0.980785 0.195090 -0.000000
v -1.000000 0.000000 -0.000000
v -0.980785 -0.195090 0.000000
v -0.923880 -0.382683 0.000000
v -0.831470 -0.555570 0.000000
v -0.707107 -0.707107 0.000000
v -0.555570 -0.831470 0.000000
v -0.382683 -0.923880 0.000000
v -0.195090 -0.980785 0.000000
v 0.000000 -1.000000 0.000000
v 0.195091 -0.980785 0.000000
v 0.382684 -0.923879 0.000000
v 0.555571 -0.831469 0.000000
v 0.707107 -0.707106 0.000000
v 0.831470 -0.555570 0.000000
v 0.923880 -0.382683 0.000000
v 0.980785 -0.195089 0.000000
v 1.000000 0.000001 -0.000000
v 0.980785 0.195091 -0.000000
v 0.923879 0.382684 -0.000000
v 0.831469 0.555571 -0.000000
v 0.707106 0.707108 -0.000000
v 0.555569 0.831470 -0.000000
v 0.382682 0.923880 -0.000000
v 0.195089 0.980786 -0.000000
v 0.000000 1.000000 0.105275
v -0.195090 0.980785 0.105275
v -0.195090 0.980785 -0.105275
v 0.000000 1.000000 -0.105275
v -0.382683 0.923880 0.105275
v -0.382683 0.923880 -0.105275
v -0.555570 0.831470 0.105275
v -0.555570 0.831470 -0.105275
v -0.707107 0.707107 0.105275
v -0.707107 0.707107 -0.105275
v -0.831470 0.555570 0.105275
v -0.831470 0.555570 -0.105275
v -0.923880 0.382683 0.105275
v -0.923880 0.382683 -0.105275
v -0.980785 0.195090 0.105275
v -0.980785 0.195090 -0.105275
v -1.000000 0.000000 0.105275
v -1.000000 0.000000 -0.105275
v -0.980785 -0.195090 0.105275
v -0.980785 -0.195090 -0.105275
v -0.923880 -0.382683 0.105275
v -0.923880 -0.382683 -0.105275
v -0.831470 -0.555570 0.105275
v -0.831470 -0.555570 -0.105275
v -0.707107 -0.707107 0.105275
v -0.707107 -0.707107 -0.105275
v -0.555570 -0.831470 0.105275
v -0.555570 -0.831470 -0.105275
v -0.382683 -0.923880 0.105275
v -0.382683 -0.923880 -0.105275
v -0.195090 -0.980785 0.105275
v -0.195090 -0.980785 -0.105275
v 0.000000 -1.000000 0.105275
v 0.000000 -1.000000 -0.105275
v 0.195091 -0.980785 0.105275
v 0.195091 -0.980785 -0.105275
v 0.382684 -0.923879 0.105275
v 0.382684 -0.923879 -0.105275
v 0.555571 -0.831469 0.105275
v 0.555571 -0.831469 -0.105275
v 0.707107 -0.707106 0.105275
v 0.707107 -0.707106 -0.105275
v 0.831470 -0.555570 0.105275
v 0.831470 -0.555570 -0.105275
v 0.923880 -0.382683 0.105275
v 0.923880 -0.382683 -0.105275
v 0.980785 -0.195089 0.105275
v 0.980785 -0.195089 -0.105275
v 1.000000 0.000001 0.105275
v 1.000000 0.000001 -0.105275
v 0.980785 0.195091 0.105275
v 0.980785 0.195091 -0.105275
v 0.923879 0.382684 0.105275
v 0.923879 0.382684 -0.105275
v 0.831469 0.555571 0.105275
v 0.831469 0.555571 -0.105275
v 0.707106 0.707108 0.105275
v 0.707106 0.707108 -0.105275
v 0.555569 0.831470 0.105275
v 0.555569 0.831470 -0.105275
v 0.382682 0.923880 0.105275
v 0.382682 0.923880 -0.105275
v 0.195089 0.980786 0.105275
v 0.195089 0.980786 -0.105275
vt 1.000000 0.750000
vt 1.000000 1.000000
vt 0.968750 1.000000
vt 0.968750 0.750000
vt 0.937500 1.000000
vt 0.937500 0.750000
vt 0.906250 1.000000
vt 0.906250 0.750000
vt 0.875000 1.000000
vt 0.875000 0.750000
vt 0.843750 1.000000
vt 0.843750 0.750000
vt 0.812500 1.000000
vt 0.812500 0.750000
vt 0.781250 1.000000
vt 0.781250 0.750000
vt 0.750000 1.000000
vt 0.750000 0.750000
vt 0.718750 1.000000
vt 0.718750 0.750000
vt 0.687500 1.000000
vt 0.687500 0.750000
vt 0.656250 1.000000
vt 0.656250 0.750000
vt 0.625000 1.000000
vt 0.625000 0.750000
vt 0.593750 1.000000
vt 0.593750 0.750000
vt 0.562500 1.000000
vt 0.562500 0.750000
vt 0.531250 1.000000
vt 0.531250 0.750000
vt 0.500000 1.000000
vt 0.500000 0.750000
vt 0.468750 1.000000
vt 0.468750 0.750000
vt 0.437500 1.000000
vt 0.437500 0.750000
vt 0.406250 1.000000
vt 0.406250 0.750000
vt 0.375000 1.000000
vt 0.375000 0.750000
vt 0.343750 1.000000
vt 0.343750 0.750000
vt 0.312500 1.000000
vt 0.312500 0.750000
vt 0.281250 1.000000
vt 0.281250 0.750000
vt 0.250000 1.000000
vt 0.250000 0.750000
vt 0.218750 1.000000
vt 0.218750 0.750000
vt 0.187500 1.000000
vt 0.187500 0.750000
vt 0.156250 1.000000
vt 0.156250 0.750000
vt 0.125000 1.000000
vt 0.125000 0.750000
vt 0.093750 1.000000
vt 0.093750 0.750000
vt 0.062500 1.000000
vt 0.062500 0.750000
vt 0.212334 0.439363
vt 0.176115 0.428376
vt 0.676115 0.428376
vt 0.712334 0.439363
vt 0.031250 1.000000
vt 0.031250 0.750000
vt 0.000000 1.000000
vt 0.000000 0.750000
vt 0.250000 0.443072
vt 0.750000 0.443072
vt 0.031250 0.500000
vt 0.000000 0.500000
vt 0.062500 0.500000
vt 0.093750 0.500000
vt 0.125000 0.500000
vt 0.156250 0.500000
vt 0.187500 0.500000
vt 0.218750 0.500000
vt 0.250000 0.500000
vt 0.281250 0.500000
vt 0.312500 0.500000
vt 0.343750 0.500000
vt 0.375000 0.500000
vt 0.406250 0.500000
vt 0.437500 0.500000
vt 0.468750 0.500000
vt 0.500000 0.500000
vt 0.531250 0.500000
vt 0.562500 0.500000
vt 0.593750 0.500000
vt 0.625000 0.500000
vt 0.656250 0.500000
vt 0.687500 0.500000
vt 0.718750 0.500000
vt 0.750000 0.500000
vt 0.781250 0.500000
vt 0.812500 0.500000
vt 0.843750 0.500000
vt 0.875000 0.500000
vt 0.906250 0.500000
vt 0.937500 0.500000
vt 0.968750 0.500000
vt 1.000000 0.500000
vt 0.787667 0.439362
vt 0.750000 0.490000
vt 0.796822 0.485388
vt 0.287667 0.439362
vt 0.296822 0.485388
vt 0.250000 0.490000
vt 0.823886 0.428376
vt 0.841844 0.471731
vt 0.323886 0.428376
vt 0.341844 0.471731
vt 0.857265 0.410534
vt 0.883337 0.449553
vt 0.357265 0.410534
vt 0.383337 0.449553
vt 0.886523 0.386523
vt 0.919706 0.419706
vt 0.386523 0.386523
vt 0.419706 0.419706
vt 0.910534 0.357265
vt 0.949553 0.383337
vt 0.410534 0.357265
vt 0.449553 0.383337
vt 0.928376 0.323886
vt 0.971731 0.341844
vt 0.428376 0.323886
vt 0.471731 0.341844
vt 0.939363 0.287667
vt 0.985388 0.296822
vt 0.439362 0.287667
vt 0.485388 0.296822
vt 0.943072 0.250000
vt 0.990000 0.250000
vt 0.443072 0.250000
vt 0.490000 0.250000
vt 0.939362 0.212333
vt 0.985388 0.203178
vt 0.439363 0.212333
vt 0.485388 0.203178
vt 0.928376 0.176114
vt 0.971731 0.158156
vt 0.428376 0.176114
vt 0.471731 0.158156
vt 0.910534 0.142735
vt 0.949553 0.116663
vt 0.410534 0.142735
vt 0.449553 0.116663
vt 0.886523 0.113477
vt 0.919706 0.080294
vt 0.386523 0.113477
vt 0.419706 0.080294
vt 0.857265 0.089466
vt 0.883337 0.050447
vt 0.357265 0.089466
vt 0.383337 0.050447
vt 0.823886 0.071624
vt 0.841844 0.028269
vt 0.323886 0.071624
vt 0.341844 0.028269
vt 0.787666 0.060637
vt 0.796822 0.014612
vt 0.287666 0.060637
vt 0.296822 0.014612
vt 0.750000 0.056928
vt 0.750000 0.010000
vt 0.250000 0.056928
vt 0.250000 0.010000
vt 0.712333 0.060638
vt 0.703178 0.014612
vt 0.212333 0.060638
vt 0.203178 0.014612
vt 0.676115 0.071625
vt 0.658156 0.028269
vt 0.176114 0.071625
vt 0.158156 0.028269
vt 0.642735 0.089466
vt 0.616663 0.050447
vt 0.142735 0.089466
vt 0.116663 0.050447
vt 0.613477 0.113477
vt 0.580294 0.080294
vt 0.113477 0.113477
vt 0.080294 0.080294
vt 0.589466 0.142735
vt 0.550447 0.116663
vt 0.089466 0.142735
vt 0.050447 0.116663
vt 0.571624 0.176114
vt 0.528269 0.158156
vt 0.071624 0.176114
vt 0.028269 0.158156
vt 0.560638 0.212334
vt 0.514611 0.203179
vt 0.060638 0.212334
vt 0.014611 0.203179
vt 0.556928 0.250000
vt 0.510000 0.250000
vt 0.056928 0.250000
vt 0.010000 0.250000
vt 0.560638 0.287667
vt 0.514612 0.296822
vt 0.060638 0.287667
vt 0.014612 0.296822
vt 0.571625 0.323886
vt 0.528269 0.341844
vt 0.071625 0.323886
vt 0.028269 0.341844
vt 0.589466 0.357265
vt 0.550447 0.383337
vt 0.089466 0.357265
vt 0.050447 0.383337
vt 0.613478 0.386523
vt 0.580295 0.419706
vt 0.113478 0.386523
vt 0.080295 0.419706
vt 0.642735 0.410534
vt 0.616663 0.449553
vt 0.142735 0.410534
vt 0.116663 0.449553
vt 0.658156 0.471731
vt 0.158156 0.471731
vt 0.703179 0.485389
vt 0.203179 0.485389
vn -0.0980 0.9952 0.0000
vn -0.2903 0.9569 0.0000
vn -0.4714 0.8819 0.0000
vn -0.6344 0.7730 0.0000
vn -0.7730 0.6344 0.0000
vn -0.8819 0.4714 0.0000
vn -0.9569 0.2903 0.0000
vn -0.9952 0.0980 -0.0000
vn -0.9952 -0.0980 0.0000
vn -0.9569 -0.2903 0.0000
vn -0.8819 -0.4714 0.0000
vn -0.7730 -0.6344 0.0000
vn -0.6344 -0.7730 0.0000
vn -0.4714 -0.8819 0.0000
vn -0.2903 -0.9569 0.0000
vn -0.0980 -0.9952 0.0000
vn 0.0980 -0.9952 0.0000
vn 0.2903 -0.9569 0.0000
vn 0.4714 -0.8819 0.0000
vn 0.6344 -0.7730 0.0000
vn 0.7730 -0.6344 0.0000
vn 0.8819 -0.4714 0.0000
vn 0.9569 -0.2903 0.0000
vn 0.9952 -0.0980 0.0000
vn 0.9952 0.0980 -0.0000
vn 0.9569 0.2903 0.0000
vn 0.8819 0.4714 0.0000
vn 0.7730 0.6344 0.0000
vn 0.6344 0.7730 0.0000
vn 0.4714 0.8819 0.0000
vn 0.2903 0.9569 0.0000
vn 0.0980 0.9952 0.0000
vn -0.0000 0.0000 1.0000
vn -0.0000 -0.0000 -1.0000
usemtl None
s off
f 65/1/1 100/2/1 99/3/1 66/4/1
f 66/4/2 99/3/2 102/5/2 67/6/2
f 67/6/3 102/5/3 104/7/3 68/8/3
f 68/8/4 104/7/4 106/9/4 69/10/4
f 69/10/5 106/9/5 108/11/5 70/12/5
f 70/12/6 108/11/6 110/13/6 71/14/6
f 71/14/7 110/13/7 112/15/7 72/16/7
f 72/16/8 112/15/8 114/17/8 73/18/8
f 73/18/9 114/17/9 116/19/9 74/20/9
f 74/20/10 116/19/10 118/21/10 75/22/10
f 75/22/11 118/21/11 120/23/11 76/24/11
f 76/24/12 120/23/12 122/25/12 77/26/12
f 77/26/13 122/25/13 124/27/13 78/28/13
f 78/28/14 124/27/14 126/29/14 79/30/14
f 79/30/15 126/29/15 128/31/15 80/32/15
f 80/32/16 128/31/16 130/33/16 81/34/16
f 81/34/17 130/33/17 132/35/17 82/36/17
f 82/36/18 132/35/18 134/37/18 83/38/18
f 83/38/19 134/37/19 136/39/19 84/40/19
f 84/40/20 136/39/20 138/41/20 85/42/20
f 85/42/21 138/41/21 140/43/21 86/44/21
f 86/44/22 140/43/22 142/45/22 87/46/22
f 87/46/23 142/45/23 144/47/23 88/48/23
f 88/48/24 144/47/24 146/49/24 89/50/24
f 89/50/25 146/49/25 148/51/25 90/52/25
f 90/52/26 148/51/26 150/53/26 91/54/26
f 91/54/27 150/53/27 152/55/27 92/56/27
f 92/56/28 152/55/28 154/57/28 93/58/28
f 93/58/29 154/57/29 156/59/29 94/60/29
f 94/60/30 156/59/30 158/61/30 95/62/30
f 64/63/15 62/64/15 61/65/15 63/66/15
f 95/62/31 158/61/31 160/67/31 96/68/31
f 96/68/32 160/67/32 100/69/32 65/70/32
f 2/71/16 64/63/16 63/66/16 1/72/16
f 159/73/32 96/68/32 65/70/32 97/74/32
f 157/75/31 95/62/31 96/68/31 159/73/31
f 155/76/30 94/60/30 95/62/30 157/75/30
f 153/77/29 93/58/29 94/60/29 155/76/29
f 151/78/28 92/56/28 93/58/28 153/77/28
f 149/79/27 91/54/27 92/56/27 151/78/27
f 147/80/26 90/52/26 91/54/26 149/79/26
f 145/81/25 89/50/25 90/52/25 147/80/25
f 143/82/24 88/48/24 89/50/24 145/81/24
f 141/83/23 87/46/23 88/48/23 143/82/23
f 139/84/22 86/44/22 87/46/22 141/83/22
f 137/85/21 85/42/21 86/44/21 139/84/21
f 135/86/20 84/40/20 85/42/20 137/85/20
f 133/87/19 83/38/19 84/40/19 135/86/19
f 131/88/18 82/36/18 83/38/18 133/87/18
f 129/89/17 81/34/17 82/36/17 131/88/17
f 127/90/16 80/32/16 81/34/16 129/89/16
f 125/91/15 79/30/15 80/32/15 127/90/15
f 123/92/14 78/28/14 79/30/14 125/91/14
f 121/93/13 77/26/13 78/28/13 123/92/13
f 119/94/12 76/24/12 77/26/12 121/93/12
f 117/95/11 75/22/11 76/24/11 119/94/11
f 115/96/10 74/20/10 75/22/10 117/95/10
f 113/97/9 73/18/9 74/20/9 115/96/9
f 111/98/8 72/16/8 73/18/8 113/97/8
f 109/99/7 71/14/7 72/16/7 111/98/7
f 107/100/6 70/12/6 71/14/6 109/99/6
f 105/101/5 69/10/5 70/12/5 107/100/5
f 103/102/4 68/8/4 69/10/4 105/101/4
f 101/103/3 67/6/3 68/8/3 103/102/3
f 98/104/2 66/4/2 67/6/2 101/103/2
f 97/105/1 65/1/1 66/4/1 98/104/1
f 3/106/33 1/72/33 97/107/33 98/108/33
f 2/71/34 4/109/34 99/110/34 100/111/34
f 5/112/33 3/106/33 98/108/33 101/113/33
f 4/109/34 6/114/34 102/115/34 99/110/34
f 7/116/33 5/112/33 101/113/33 103/117/33
f 6/114/34 8/118/34 104/119/34 102/115/34
f 9/120/33 7/116/33 103/117/33 105/121/33
f 8/118/34 10/122/34 106/123/34 104/119/34
f 11/124/33 9/120/33 105/121/33 107/125/33
f 10/122/34 12/126/34 108/127/34 106/123/34
f 13/128/33 11/124/33 107/125/33 109/129/33
f 12/126/34 14/130/34 110/131/34 108/127/34
f 15/132/33 13/128/33 109/129/33 111/133/33
f 14/130/34 16/134/34 112/135/34 110/131/34
f 17/136/33 15/132/33 111/133/33 113/137/33
f 16/134/34 18/138/34 114/139/34 112/135/34
f 19/140/33 17/136/33 113/137/33 115/141/33
f 18/138/34 20/142/34 116/143/34 114/139/34
f 21/144/33 19/140/33 115/141/33 117/145/33
f 20/142/34 22/146/34 118/147/34 116/143/34
f 23/148/33 21/144/33 117/145/33 119/149/33
f 22/146/34 24/150/34 120/151/34 118/147/34
f 25/152/33 23/148/33 119/149/33 121/153/33
f 24/150/34 26/154/34 122/155/34 120/151/34
f 27/156/33 25/152/33 121/153/33 123/157/33
f 26/154/34 28/158/34 124/159/34 122/155/34
f 29/160/33 27/156/33 123/157/33 125/161/33
f 28/158/34 30/162/34 126/163/34 124/159/34
f 31/164/33 29/160/33 125/161/33 127/165/33
f 30/162/34 32/166/34 128/167/34 126/163/34
f 33/168/33 31/164/33 127/165/33 129/169/33
f 32/166/34 34/170/34 130/171/34 128/167/34
f 35/172/33 33/168/33 129/169/33 131/173/33
f 34/170/34 36/174/34 132/175/34 130/171/34
f 37/176/33 35/172/33 131/173/33 133/177/33
f 36/174/34 38/178/34 134/179/34 132/175/34
f 39/180/33 37/176/33 133/177/33 135/181/33
f 38/178/34 40/182/34 136/183/34 134/179/34
f 41/184/33 39/180/33 135/181/33 137/185/33
f 40/182/34 42/186/34 138/187/34 136/183/34
f 43/188/33 41/184/33 137/185/33 139/189/33
f 42/186/34 44/190/34 140/191/34 138/187/34
f 45/192/33 43/188/33 139/189/33 141/193/33
f 44/190/34 46/194/34 142/195/34 140/191/34
f 47/196/33 45/192/33 141/193/33 143/197/33
f 46/194/34 48/198/34 144/199/34 142/195/34
f 49/200/33 47/196/33 143/197/33 145/201/33
f 48/198/34 50/202/34 146/203/34 144/199/34
f 51/204/33 49/200/33 145/201/33 147/205/33
f 50/202/34 52/206/34 148/207/34 146/203/34
f 53/208/33 51/204/33 147/205/33 149/209/33
f 52/206/34 54/210/34 150/211/34 148/207/34
f 55/212/33 53/208/33 149/209/33 151/213/33
f 54/210/34 56/214/34 152/215/34 150/211/34
f 57/216/33 55/212/33 151/213/33 153/217/33
f 56/214/34 58/218/34 154/219/34 152/215/34
f 59/220/33 57/216/33 153/217/33 155/221/33
f 58/218/34 60/222/34 156/223/34 154/219/34
f 61/65/33 59/220/33 155/221/33 157/224/33
f 60/222/34 62/64/34 158/225/34 156/223/34
f 63/66/33 61/65/33 157/224/33 159/226/33
f 62/64/34 64/63/34 160/227/34 158/225/34
f 1/72/33 63/66/33 159/226/33 97/107/33
f 64/63/34 2/71/34 100/111/34 160/227/34
f 62/64/14 60/222/14 59/220/14 61/65/14
f 60/222/13 58/218/13 57/216/13 59/220/13
f 58/218/12 56/214/12 55/212/12 57/216/12
f 56/214/11 54/210/11 53/208/11 55/212/11
f 54/210/10 52/206/10 51/204/10 53/208/10
f 52/206/9 50/202/9 49/200/9 51/204/9
f 50/202/8 48/198/8 47/196/8 49/200/8
f 48/198/7 46/194/7 45/192/7 47/196/7
f 46/194/6 44/190/6 43/188/6 45/192/6
f 44/190/5 42/186/5 41/184/5 43/188/5
f 42/186/4 40/182/4 39/180/4 41/184/4
f 40/182/3 38/178/3 37/176/3 39/180/3
f 38/178/2 36/174/2 35/172/2 37/176/2
f 36/174/1 34/170/1 33/168/1 35/172/1
f 34/170/32 32/166/32 31/164/32 33/168/32
f 32/166/31 30/162/31 29/160/31 31/164/31
f 30/162/30 28/158/30 27/156/30 29/160/30
f 28/158/29 26/154/29 25/152/29 27/156/29
f 26/154/28 24/150/28 23/148/28 25/152/28
f 24/150/27 22/146/27 21/144/27 23/148/27
f 22/146/26 20/142/26 19/140/26 21/144/26
f 20/142/25 18/138/25 17/136/25 19/140/25
f 18/138/24 16/134/24 15/132/24 17/136/24
f 16/134/23 14/130/23 13/128/23 15/132/23
f 14/130/22 12/126/22 11/124/22 13/128/22
f 12/126/21 10/122/21 9/120/21 11/124/21
f 10/122/20 8/118/20 7/116/20 9/120/20
f 8/118/19 6/114/19 5/112/19 7/116/19
f 6/114/18 4/109/18 3/106/18 5/112/18
f 4/109/17 2/71/17 1/72/17 3/106/17
